<svg xmlns="http://www.w3.org/2000/svg" viewBox="0 0 200 200" width="100%" height="100%">
  <defs>
    <linearGradient id="sr" x1="0%" y1="0%" x2="100%" y2="100%"><stop offset="0%" stop-color="#FF6B6B"/><stop offset="100%" stop-color="#E03131"/></linearGradient>
    <filter id="ssh"><feDropShadow dx="0" dy="6" stdDeviation="6" flood-opacity="0.2"/></filter>
  </defs>
  <g filter="url(#ssh)" transform="rotate(-5 100 115)">
    <path d="M28 145 C28 142 35 142 50 142 L160 142 C172 142 176 138 178 132 C180 144 175 154 160 154 L44 154 C32 154 28 150 28 145 Z" fill="#212529"/>
    <path d="M30 132 L165 132 C174 132 177 126 178 122 C180 132 174 142 160 142 L42 142 C32 142 30 136 30 132 Z" fill="#F8F9FA"/>
    <rect x="52" y="135" width="24" height="5" rx="2.5" fill="#4DABF7"/>
    <path d="M32 130 C32 108 44 86 64 86 C74 86 80 94 92 104 L128 108 C155 108 170 120 176 126 L32 130 Z" fill="url(#sr)"/>
    <path d="M52 86 C58 76 74 76 80 88 C74 94 62 94 52 86 Z" fill="#343A40"/>
    <path d="M60 116 Q100 124 145 108 Q105 136 60 116 Z" fill="#FFF"/>
    <line x1="88" y1="92" x2="98" y2="88" stroke="#FFF" stroke-width="3" stroke-linecap="round"/>
    <line x1="96" y1="99" x2="106" y2="95" stroke="#FFF" stroke-width="3" stroke-linecap="round"/>
    <line x1="104" y1="106" x2="114" y2="102" stroke="#FFF" stroke-width="3" stroke-linecap="round"/>
  </g>
</svg>
