<svg xmlns="http://www.w3.org/2000/svg" viewBox="0 0 200 200" width="100%" height="100%">
  <defs>
    <filter id="badsh"><feDropShadow dx="0" dy="5" stdDeviation="5" flood-opacity="0.2"/></filter>
  </defs>
  <g filter="url(#badsh)">
    <g transform="rotate(35 100 100)">
      <rect x="96" y="125" width="8" height="50" rx="3" fill="#FF6B6B"/>
      <rect x="98.5" y="85" width="3" height="40" fill="#495057"/>
      <ellipse cx="100" cy="55" rx="26" ry="32" fill="#E7F5FF" stroke="#339AF0" stroke-width="4"/>
      <line x1="88" y1="30" x2="88" y2="80" stroke="#74C0FC" stroke-width="1"/>
      <line x1="100" y1="24" x2="100" y2="86" stroke="#74C0FC" stroke-width="1"/>
      <line x1="112" y1="30" x2="112" y2="80" stroke="#74C0FC" stroke-width="1"/>
      <line x1="78" y1="55" x2="122" y2="55" stroke="#74C0FC" stroke-width="1"/>
    </g>
    <g transform="rotate(-35 100 100)">
      <rect x="96" y="125" width="8" height="50" rx="3" fill="#51CF66"/>
      <rect x="98.5" y="85" width="3" height="40" fill="#495057"/>
      <ellipse cx="100" cy="55" rx="26" ry="32" fill="#FFF9DB" stroke="#FCC419" stroke-width="4"/>
      <line x1="88" y1="30" x2="88" y2="80" stroke="#FFE066" stroke-width="1"/>
      <line x1="100" y1="24" x2="100" y2="86" stroke="#FFE066" stroke-width="1"/>
      <line x1="112" y1="30" x2="112" y2="80" stroke="#FFE066" stroke-width="1"/>
      <line x1="78" y1="55" x2="122" y2="55" stroke="#FFE066" stroke-width="1"/>
    </g>
    <g transform="translate(100 100)">
      <polygon points="-8,-4 8,-4 14,-22 -14,-22" fill="#FFF" stroke="#DEE2E6" stroke-width="1.5"/>
      <ellipse cx="0" cy="0" rx="9" ry="7" fill="#FA5252"/>
    </g>
  </g>
</svg>
