<svg xmlns="http://www.w3.org/2000/svg" viewBox="0 0 200 200" width="100%" height="100%">
  <defs>
    <linearGradient id="extw" x1="0%" y1="0%" x2="100%" y2="100%"><stop offset="0%" stop-color="#FFF"/><stop offset="100%" stop-color="#E9ECEF"/></linearGradient>
    <filter id="extsh"><feDropShadow dx="0" dy="6" stdDeviation="6" flood-opacity="0.18"/></filter>
  </defs>
  <g filter="url(#extsh)" transform="rotate(-15 100 100)">
    <path d="M30 100 C15 100 10 135 25 145 C40 155 45 180 30 185" fill="none" stroke="#212529" stroke-width="6" stroke-linecap="round"/>
    <rect x="30" y="75" width="145" height="52" rx="10" fill="url(#extw)" stroke="#CED4DA" stroke-width="2"/>
    <rect x="42" y="85" width="16" height="22" rx="3" fill="#FF6B6B"/>
    <circle cx="50" cy="91" r="2.5" fill="#FFF"/>
    <g transform="translate(68, 86)">
      <circle cx="12" cy="14" r="13" fill="#DEE2E6"/>
      <circle cx="12" cy="7" r="2.5" fill="#212529"/>
      <circle cx="7" cy="17" r="2" fill="#212529"/>
      <circle cx="17" cy="17" r="2" fill="#212529"/>
    </g>
    <g transform="translate(102, 86)">
      <circle cx="12" cy="14" r="13" fill="#DEE2E6"/>
      <circle cx="12" cy="7" r="2.5" fill="#212529"/>
      <circle cx="7" cy="17" r="2" fill="#212529"/>
      <circle cx="17" cy="17" r="2" fill="#212529"/>
    </g>
    <g transform="translate(136, 86)">
      <circle cx="12" cy="14" r="13" fill="#DEE2E6"/>
      <circle cx="12" cy="7" r="2.5" fill="#212529"/>
      <circle cx="7" cy="17" r="2" fill="#212529"/>
      <circle cx="17" cy="17" r="2" fill="#212529"/>
    </g>
  </g>
</svg>
